<?xml version="1.0" encoding="UTF-8" standalone="no"?>
<svg xmlns:rdf="http://www.w3.org/1999/02/22-rdf-syntax-ns#" xmlns="http://www.w3.org/2000/svg" height="447.628" width="545.345" version="1.1" xmlns:cc="http://creativecommons.org/ns#" xmlns:xlink="http://www.w3.org/1999/xlink" viewBox="0 0 436.27637 358.10251" xmlns:dc="http://purl.org/dc/elements/1.1/">
 <defs>
  <symbol id="d" overflow="visible">
   <path d="m6.28125-18.9219h1.35938l-6.1875 19.3906h-1.39062z"/>
  </symbol>
  <symbol id="c" overflow="visible">
   <path d="m0.828125-0.3125c3.34376-3.46875 5.60938-6.00781 6.79688-7.625 1.19531-1.625 1.79688-3.20703 1.79688-4.75 0-1.35156-0.367187-2.37891-1.09375-3.07812-0.730469-0.707031-1.60156-1.0625-2.60938-1.0625-1.25 0-2.26172 0.453125-3.03125 1.35938-0.4375 0.5-0.851562 1.27344-1.23438 2.3125l-0.59375-0.125c0.457031-2.09375 1.22656-3.54688 2.3125-4.35938 1.09375-0.8203 2.26563-1.2344 3.51563-1.2344 1.53906 0 2.78516 0.492187 3.73438 1.46875 0.957031 0.96875 1.4375 2.15625 1.4375 3.5625 0 1.49219-0.515625 2.92969-1.54688 4.3125-1.03125 1.38672-3.27344 3.85156-6.71875 7.39062h6.28125c0.875 0 1.48828-0.101563 1.84375-0.3125 0.351563-0.207031 0.753906-0.71875 1.20312-1.53125l0.3593 0.17185-1.5156 3.8125h-10.9375z"/>
  </symbol>
  <symbol id="b" overflow="visible">
   <path d="m3.125 0.15625c-0.16797 0-0.30859-0.046875-0.42188-0.140625-0.11718-0.0820313-0.21093-0.203125-0.28124-0.359375-0.0625-0.15625-0.10938-0.335938-0.14063-0.546875-0.03125-0.207035-0.04687-0.437495-0.04687-0.687495 0-0.332031 0.019531-0.6875 0.0625-1.0625 0.039063-0.382813 0.09375-0.773438 0.15625-1.17188l0.375-2.42188c0.019531-0.144531 0.035156-0.28125 0.046875-0.40625 0.019531-0.125 0.03125-0.21875 0.03125-0.28125 0-0.175781-0.03125-0.320313-0.09375-0.4375-0.0625-0.125-0.164062-0.1875-0.296875-0.1875-0.117187 0-0.242187 0.039062-0.375 0.109375-0.12501 0.0625-0.25782 0.15234-0.39063 0.26562-0.125 0.10547-0.25 0.21876-0.375 0.34376-0.11719 0.11718-0.23047 0.22656-0.34375 0.32812l-0.421875-0.5c0.1875-0.1875 0.378906-0.367188 0.578125-0.546875 0.207031-0.1875 0.425781-0.351563 0.65625-0.5 0.226563-0.15625 0.46875-0.273438 0.71875-0.359375 0.25-0.09375 0.507813-0.140625 0.78125-0.140625 0.21875 0 0.394531 0.039062 0.53125 0.109375 0.144531 0.074219 0.253906 0.171875 0.328125 0.296875 0.08202 0.11718 0.14061 0.24609 0.17186 0.39062 0.03125 0.136719 0.046875 0.277344 0.046875 0.421875 0 0.085937-0.00781 0.164062-0.015625 0.234375 0 0.074219-0.00781 0.148437-0.015625 0.21875l-0.5 3.17188c-0.05468 0.33593-0.10156 0.66406-0.14062 0.98437-0.03125 0.32422-0.04688 0.60547-0.04688 0.84375 0 0.25 0.015625 0.453125 0.046875 0.609375 0.03125 0.148437 0.085938 0.21875 0.171875 0.21875 0.1875 0 0.425781-0.078125 0.71875-0.234375 0.300781-0.15625 0.613281-0.367188 0.9375-0.640625 0.320313-0.269531 0.640625-0.59375 0.953125-0.96875 0.320313-0.375 0.613281-0.773438 0.875-1.20312 0.257813-0.4375 0.46875-0.894531 0.625-1.375 0.164063-0.476563 0.25-0.960938 0.25-1.45312 0-0.207031-0.046875-0.367188-0.140625-0.484375-0.09375-0.113281-0.234375-0.171875-0.421875-0.171875-0.25 0-0.480469 0.101562-0.6875 0.296875-0.210937 0.1875-0.421875 0.433594-0.640625 0.734375l-0.5-0.4375c0.13282-0.20705 0.29688-0.41017 0.48438-0.60939 0.195313-0.195313 0.398438-0.367188 0.609375-0.515625 0.21875-0.144531 0.441406-0.257813 0.671875-0.34375 0.226563-0.09375 0.453125-0.140625 0.671875-0.140625 0.414063 0 0.71875 0.117187 0.90625 0.34375 0.1875 0.21875 0.28125 0.511719 0.28125 0.875 0 0.28125-0.054687 0.605469-0.15625 0.96875-0.09375 0.367187-0.234375 0.75-0.421875 1.15625-0.179687 0.398437-0.390625 0.808594-0.640625 1.23438-0.25 0.429687-0.53125 0.84375-0.84375 1.25-0.304687 0.398437-0.625 0.773437-0.96875 1.125-0.34375 0.355469-0.703125 0.667969-1.07812 0.9375-0.367187 0.261719-0.742187 0.46875-1.125 0.625-0.38673 0.156245-0.77345 0.23437-1.15626 0.23437z"/>
  </symbol>
  <symbol id="a" overflow="visible">
   <path d="m6.625-11.75-2.20312 1.90625-0.46875-0.53125 1.40625-1.21875h-5.35938v-0.828125h5.35938l-1.40625-1.21875 0.46875-0.53125 2.20312 1.90625z"/>
  </symbol>
 </defs>
 <g stroke="#000" stroke-miterlimit="8" fill="none">
  <path d="m2.6 179.049c0-97.4493 80.586-176.449 180-176.449 99.4102 0 180 79 180 176.449 0 97.4532-80.5899 176.453-180 176.453-99.4141 0-180-79-180-176.453z" stroke-dasharray="8.00000432, 6.00000324" stroke-width="2"/>
  <path d="m182.6 179.053h180" stroke-width="3"/>
  <path d="m362.6 110.284v147" stroke-width="3"/>
 </g>
 <g>
  <g>
   <path d="m350.768 109.534c0-7.04298 5.3711-12.75 12-12.75 6.62891 0 12 5.70702 12 12.75 0 7.04297-5.37109 12.75-12 12.75s-12-5.70703-12-12.75z" stroke="#2e518f" stroke-miterlimit="8" fill="#4270c2"/>
   <path d="m350.768 254.526c0-7.03906 5.3711-12.75 12-12.75 6.62891 0 12 5.71094 12 12.75 0 7.04298-5.37109 12.75-12 12.75s-12-5.70703-12-12.75z" stroke="#2e518f" stroke-miterlimit="8" fill="#4270c2"/>
   <path d="m397.268 109.534 3 6-2.25-1.5v135.992l2.25-1.5-3 6-3-6 2.25 1.5v-135.992l-2.25 1.5z"/>
   <path d="m337.268 109.534 3 6h-2.25v57.5195h2.25l-3 6-3-6h2.25v-57.5195h-2.25z"/>
  </g>
  <use xlink:href="#d" transform="translate(-273.232 -56.2164)" height="100%" width="100%" y="206.12041" x="584.60339" fill="#000000"/>
  <g transform="translate(-273.232 -56.2164)">
   <use xlink:href="#c" height="100%" width="100%" y="206.12041" x="592.35382"/>
  </g>
  <path d="m363.85 110.284v43.3828h2.5l-3.75 7.5-3.75-7.5h2.5v-43.3828z" fill="#4270c2"/>
  <path d="m362.428 203.643 3.75 7.5h-2.5v43.3828h-2.5v-43.3828h-2.5z" fill="#4270c2"/>
 </g>
 <g>
  <g transform="translate(-273.232 -56.2164)">
   <use xlink:href="#b" height="100%" width="100%" y="202.0728" x="645.90039"/>
  </g>
  <g transform="translate(-273.232 -56.2164)">
   <use xlink:href="#a" height="100%" width="100%" y="202.06779" x="648.95538"/>
  </g>
  <g transform="translate(-273.232 -56.2164)">
   <use xlink:href="#b" height="100%" width="100%" y="288.1178" x="645.3678"/>
  </g>
  <g transform="translate(-273.232 -56.2164)">
   <use xlink:href="#a" height="100%" width="100%" y="288.11279" x="648.42279"/>
  </g>
  <path d="m183.381 141.248 2.41016 0.2461 2.15625 0.46093 2.07422 0.67969 1.98828 0.88281 1.89062 1.07032 1.78516 1.2539 1.67187 1.42188 1.55469 1.57812 1.42188 1.72657 1.28515 1.85937 1.14063 1.98438 0.98828 2.09765 0.82422 2.19922 0.66015 2.30469 0.20313 1.28906 2.53906-0.25781-2.37109 6.27344-3.59766-5.66407 2.43359-0.25-0.18359-1.17578-0.63281-2.20312-0.79688-2.125-0.95312-2.02344-1.10156-1.91406-1.23829-1.79297-1.36718-1.65625-1.48828-1.51563-1.60547-1.36328-1.70703-1.19922-1.8086-1.02343-1.89453-0.84375-1.97656-0.64454-2.05078-0.4414-2.29688-0.23438-2.26172 0.0312-2.21484 0.28907-2.15234 0.53125-2.08204 0.76953-2 0.99218-1.89843 1.20313-1.79297 1.40625-1.66797 1.59766-1.53125 1.78125-1.38281 1.94921-1.21875 2.10547-1.04297 2.25391-0.85547 2.39062-0.65234 2.51563-0.44141 2.65234-0.98828-0.16406 0.44922-2.69531 0.67578-2.60156 0.88672-2.47657 1.08203-2.33593 1.26562-2.1875 1.4336-2.02344 1.59375-1.85156 1.73828-1.66407 1.87109-1.46875 1.98828-1.26172 2.09375-1.03906 2.1836-0.80469 2.26172-0.55859 2.32812-0.30469z"/>
  <path d="m426.223 175.826q0.76562 0.8125 1.15625 1.625 0.28125 0.5625 0.92187 2.95313l1.375-2.0625q0.54688-0.75 1.32813-1.42188 0.78125-0.6875 1.375-0.9375 0.375-0.15625 0.82812-0.15625 0.67188 0 1.0625 0.35938 0.40625 0.35937 0.40625 0.875 0 0.59375-0.23437 0.8125-0.4375 0.39062-1 0.39062-0.32813 0-0.70313-0.14062-0.73437-0.25-0.98437-0.25-0.375 0-0.89063 0.4375-0.96875 0.8125-2.3125 3.14062l1.28125 5.375q0.29688 1.23438 0.5 1.48438 0.20313 0.23437 0.40625 0.23437 0.32813 0 0.76563-0.35937 0.85937-0.71875 1.46875-1.875l0.54687 0.28125q-0.98437 1.84375-2.5 3.0625-0.85937 0.6875-1.45312 0.6875-0.875 0-1.39063-0.98438-0.32812-0.60937-1.35937-5.25-2.4375 4.23438-3.90625 5.45313-0.95313 0.78125-1.84375 0.78125-0.625 0-1.14063-0.45313-0.375-0.34375-0.375-0.92187 0-0.51563 0.34375-0.85938t0.84375-0.34375 1.0625 0.5q0.40625 0.35938 0.625 0.35938 0.1875 0 0.48438-0.25 0.73437-0.59375 2-2.5625 1.26562-1.96875 1.65625-2.84375-0.96875-3.79688-1.04688-4.01563-0.35937-1.01562-0.9375-1.4375-0.57812-0.42187-1.70312-0.42187-0.35938 0-0.82813 0.0312v-0.5625l4.17188-0.73438z"/>
  <path d="m300.038 135.62q0.76562 0.8125 1.15625 1.625 0.28125 0.5625 0.92187 2.95313l1.375-2.0625q0.54688-0.75 1.32813-1.42188 0.78125-0.6875 1.375-0.9375 0.375-0.15625 0.82812-0.15625 0.67188 0 1.0625 0.35938 0.40625 0.35937 0.40625 0.875 0 0.59375-0.23437 0.8125-0.4375 0.39062-1 0.39062-0.32813 0-0.70313-0.14062-0.73437-0.25-0.98437-0.25-0.375 0-0.89063 0.4375-0.96875 0.8125-2.3125 3.14062l1.28125 5.375q0.29688 1.23438 0.5 1.48438 0.20313 0.23437 0.40625 0.23437 0.32813 0 0.76563-0.35937 0.85937-0.71875 1.46875-1.875l0.54687 0.28125q-0.98437 1.84375-2.5 3.0625-0.85937 0.6875-1.45312 0.6875-0.875 0-1.39063-0.98438-0.32812-0.60937-1.35937-5.25-2.4375 4.23438-3.90625 5.45313-0.95313 0.78125-1.84375 0.78125-0.625 0-1.14063-0.45313-0.375-0.34375-0.375-0.92187 0-0.51563 0.34375-0.85938t0.84375-0.34375 1.0625 0.5q0.40625 0.35938 0.625 0.35938 0.1875 0 0.48438-0.25 0.73437-0.59375 2-2.5625 1.26562-1.96875 1.65625-2.84375-0.96875-3.79688-1.04688-4.01563-0.35937-1.01562-0.9375-1.4375-0.57812-0.42187-1.70312-0.42187-0.35938 0-0.82813 0.0312v-0.5625l4.17188-0.73438z"/>
  <path d="m290.438 221.783-3.39063-10.2969q-1.1875 0.0156-2.4375-0.23438l-1.82812 6.40625q-0.35938 1.25-0.35938 2.10938 0 0.65625 0.45313 1.03125 0.34375 0.28125 1.875 0.40625l-0.14063 0.57812h-8.20312l0.17187-0.57812q1.15625-0.0469 1.5625-0.23438 0.64063-0.26562 0.9375-0.71875 0.5-0.73437 1.04688-2.59375l3.70312-12.7969q0.375-1.28125 0.375-1.98438 0-0.71875-0.59375-1.21875-0.57812-0.5-1.67187-0.48437l0.1875-0.57813h6.90625q3.46875 0 5 1.3125t1.53125 3.45313q0 2.04687-1.57813 3.75-1.5625 1.6875-4.29687 2.14062l2.0625 6.20313q0.75 2.28125 1.5 2.96875t2.42187 0.78125l-0.17187 0.57812h-5.0625zm-5.5625-11.4219q1 0.14062 1.78125 0.14062 2.6875 0 4.25-1.48437 1.5625-1.5 1.5625-3.71875 0-1.73438-0.98438-2.65625-0.96875-0.92188-2.92187-0.92188-0.5 0-1.1875 0.125l-2.5 8.51563z"/>
  <path d="m377.096 270.48-2.03125 7.04687q1.35937-2.48437 2.3125-3.73437 1.48437-1.9375 2.89062-2.8125 0.82813-0.5 1.73438-0.5 0.78125 0 1.29687 0.5 0.51563 0.5 0.51563 1.28125 0 0.76562-0.35938 2l-1.10937 3.96875q2.54687-4.76563 4.82812-6.6875 1.26563-1.0625 2.5-1.0625 0.71875 0 1.17188 0.5 0.46875 0.48437 0.46875 1.51562 0 0.90625-0.28125 1.92188l-1.71875 6.07812q-0.5625 1.98438-0.5625 2.20313t0.14062 0.375q0.0937 0.10937 0.25 0.10937 0.15625 0 0.54688-0.29687 0.89062-0.6875 1.67187-1.8125l0.51563 0.32812q-0.39063 0.625-1.39063 1.71875-0.98437 1.09375-1.6875 1.48438-0.70312 0.39062-1.29687 0.39062-0.54688 0-0.92188-0.375-0.35937-0.375-0.35937-0.92187 0-0.75 0.64062-3.01563l1.42188-5.01562q0.48437-1.73438 0.51562-1.92188 0.0469-0.29687 0.0469-0.57812 0-0.39063-0.17188-0.60938-0.1875-0.21875-0.42187-0.21875-0.65625 0-1.39063 0.67188-2.15625 1.98437-4.03125 5.5625-1.23437 2.35937-2.3125 6.04687h-2.35937l2.67187-9.45312q0.4375-1.53125 0.4375-2.04688 0-0.42187-0.17187-0.625-0.17188-0.20312-0.42188-0.20312-0.51562 0-1.09375 0.375-0.9375 0.60937-2.42187 2.60937-1.46875 2-2.28125 3.82813-0.39063 0.85937-1.85938 5.51562h-2.3125l2.89063-10.125 0.375-1.3125q0.10937-0.29687 0.10937-0.4375 0-0.34375-0.3125-0.60937-0.3125-0.28125-0.79687-0.28125-0.20313 0-1.125 0.1875l-0.14063-0.57813 5.39063-0.98437z"/>
  <path d="m381.178 82.2587-2.03125 7.04688q1.35938-2.48438 2.3125-3.73438 1.48438-1.9375 2.89063-2.8125 0.82812-0.5 1.73437-0.5 0.78125 0 1.29688 0.5 0.51562 0.5 0.51562 1.28125 0 0.765625-0.35937 2l-1.10938 3.96875q2.54688-4.76562 4.82813-6.6875 1.26562-1.0625 2.5-1.0625 0.71875 0 1.17187 0.5 0.46875 0.484375 0.46875 1.51562 0 0.90625-0.28125 1.92188l-1.71875 6.07812q-0.5625 1.98438-0.5625 2.20312 0 0.21875 0.14063 0.375 0.0937 0.109375 0.25 0.109375 0.15625 0 0.54687-0.296875 0.89063-0.6875 1.67188-1.8125l0.51562 0.328125q-0.39062 0.625-1.39062 1.71875-0.98438 1.09375-1.6875 1.48438-0.70313 0.390625-1.29688 0.390625-0.54687 0-0.92187-0.375-0.35938-0.375-0.35938-0.921875 0-0.75 0.64063-3.01562l1.42187-5.01562q0.48438-1.73438 0.51563-1.92188 0.0469-0.296875 0.0469-0.578125 0-0.390625-0.17187-0.609375-0.1875-0.21875-0.42188-0.21875-0.65625 0-1.39062 0.671875-2.15625 1.98438-4.03125 5.5625-1.23438 2.35938-2.3125 6.04688h-2.35938l2.67188-9.45312q0.4375-1.53125 0.4375-2.04688 0-0.421875-0.17188-0.625-0.17187-0.203125-0.42187-0.203125-0.51563 0-1.09375 0.375-0.9375 0.609375-2.42188 2.60938-1.46875 2-2.28125 3.82812-0.39062 0.859375-1.85937 5.51562h-2.3125l2.89062-10.125 0.375-1.3125q0.10938-0.296875 0.10938-0.4375 0-0.34375-0.3125-0.609375-0.3125-0.28125-0.79688-0.28125-0.20312 0-1.125 0.1875l-0.14062-0.578125 5.39062-0.984375z"/>
  <path d="m182.313 120.197-0.23438 0.79687q-3.42187 0.125-5.0625 3.60938-1.625 3.48437-1.625 6.40625 0 1.29687 0.5625 2 0.57813 0.70312 1.53125 0.70312 2.26563 0 4.3125-3.57812-0.0781-1.125-0.0781-1.75 0-2.4375 0.71875-4.14063 0.71875-1.71875 1.79687-1.71875 1.0625 0 1.0625 1.09375 0 2.17188-2.8125 6.65625 0.34375 3.3125 2.70313 3.3125 2.34375 0 3.8125-3.28125 1.48437-3.28125 1.48437-6.15625 0-2.76562-2.96875-3.15625l0.17188-0.64062q2.73437 0.23437 3.98437 1.76562 1.25 1.51563 1.25 3.57813 0 3.03125-2.0625 6.03125-2.04687 2.98437-5.21875 2.98437-3.34375 0-3.73437-3.54687-2.14063 3.54687-4.78125 3.54687-1.85938 0-3.04688-1.32812-1.1875-1.34375-1.1875-3.76563 0-2.0625 0.85938-4.0625 0.85937-2 2.375-3.28125 1.53125-1.28125 2.84375-1.65625 1.3125-0.39062 3.34375-0.42187z"/>
 </g>
</svg>
